<svg id="visual" viewBox="0 0 1920 1080" width="1920" height="1080" xmlns="http://www.w3.org/2000/svg" xmlns:xlink="http://www.w3.org/1999/xlink" version="1.1"><rect x="0" y="0" width="1920" height="1080" fill="#1e1f22"></rect><defs><linearGradient id="grad1_0" x1="43.8%" y1="100%" x2="100%" y2="0%"><stop offset="14.444444444444446%" stop-color="#27282c" stop-opacity="1"></stop><stop offset="85.55555555555554%" stop-color="#27282c" stop-opacity="1"></stop></linearGradient></defs><defs><linearGradient id="grad1_1" x1="43.8%" y1="100%" x2="100%" y2="0%"><stop offset="14.444444444444446%" stop-color="#27282c" stop-opacity="1"></stop><stop offset="85.55555555555554%" stop-color="#1e1f22" stop-opacity="1"></stop></linearGradient></defs><defs><linearGradient id="grad2_0" x1="0%" y1="100%" x2="56.3%" y2="0%"><stop offset="14.444444444444446%" stop-color="#27282c" stop-opacity="1"></stop><stop offset="85.55555555555554%" stop-color="#27282c" stop-opacity="1"></stop></linearGradient></defs><defs><linearGradient id="grad2_1" x1="0%" y1="100%" x2="56.3%" y2="0%"><stop offset="14.444444444444446%" stop-color="#1e1f22" stop-opacity="1"></stop><stop offset="85.55555555555554%" stop-color="#27282c" stop-opacity="1"></stop></linearGradient></defs><g transform="translate(1920, 1080)"><path d="M-540 0C-508.5 -52.2 -477 -104.4 -446 -144.9C-415.1 -185.4 -384.6 -214.2 -368.9 -268C-353.2 -321.9 -352.4 -400.7 -317.4 -436.9C-282.4 -473 -213.4 -466.4 -154.8 -476.5C-96.2 -486.5 -48.1 -513.3 0 -540L0 0Z" fill="#222327"></path><path d="M-270 0C-254.3 -26.1 -238.5 -52.2 -223 -72.5C-207.5 -92.7 -192.3 -107.1 -184.5 -134C-176.6 -160.9 -176.2 -200.4 -158.7 -218.4C-141.2 -236.5 -106.7 -233.2 -77.4 -238.2C-48.1 -243.3 -24.1 -256.6 0 -270L0 0Z" fill="#27282c"></path></g><g transform="translate(0, 0)"><path d="M540 0C534.1 55.3 528.3 110.7 513.6 166.9C498.9 223 475.4 280.1 432.8 314.5C390.3 348.9 328.7 360.7 281.5 387.5C234.4 414.3 201.8 456.2 157.3 484.1C112.8 512 56.4 526 0 540L0 0Z" fill="#222327"></path><path d="M270 0C267.1 27.7 264.1 55.3 256.8 83.4C249.4 111.5 237.7 140 216.4 157.2C195.1 174.4 164.3 180.3 140.8 193.8C117.2 207.2 100.9 228.1 78.6 242C56.4 256 28.2 263 0 270L0 0Z" fill="#27282c"></path></g></svg>